<svg width="26" height="26" viewBox="0 0 26 26" fill="none" xmlns="http://www.w3.org/2000/svg">
<path d="M13.0008 0.915844C6.156 0.915844 0.610638 6.46585 0.610638 13.306C0.610638 18.7832 4.16041 23.4256 9.08007 25.0634C9.7019 25.1804 9.92647 24.7971 9.92647 24.4656C9.92647 24.1714 9.9195 23.3931 9.91486 22.3601C6.46653 23.1066 5.74015 20.6944 5.74015 20.6944C5.17563 19.2664 4.36098 18.8831 4.36098 18.8831C3.23967 18.1172 4.45003 18.1335 4.45003 18.1335C5.69214 18.2179 6.34572 19.4073 6.34572 19.4073C7.45077 21.303 9.24501 20.7548 9.95512 20.4357C10.0635 19.6373 10.3865 19.0883 10.738 18.7824C7.98741 18.4719 5.09509 17.4071 5.09509 12.6594C5.09509 11.3034 5.57521 10.1992 6.36895 9.33184C6.23189 9.02132 5.81217 7.75907 6.47814 6.05233C6.47814 6.05233 7.51504 5.72167 9.88543 7.32309C10.8774 7.04819 11.9306 6.91112 12.983 6.90415C14.0361 6.91112 15.0885 7.04896 16.0805 7.32309C18.4369 5.72167 19.4731 6.05233 19.4731 6.05233C20.1383 7.75907 19.7185 9.02054 19.5977 9.33184C20.3837 10.1992 20.8639 11.3042 20.8639 12.6594C20.8639 17.418 17.9677 18.4672 15.214 18.77C15.6445 19.141 16.048 19.9037 16.048 21.0614C16.048 22.7186 16.0325 24.0536 16.0325 24.4571C16.0325 24.7792 16.2493 25.1664 16.8874 25.0418C21.8435 23.421 25.3894 18.7747 25.3894 13.3052C25.3894 6.46508 19.844 0.91507 12.9992 0.91507L13.0008 0.915844Z" fill="white"/>
</svg>
